<svg width="780" height="304" viewBox="0 0 780 304" xmlns="http://www.w3.org/2000/svg">
  <defs>
    <linearGradient id="accA" x1="0" y1="0" x2="1" y2="1">
      <stop offset="0" stop-color="#22d3ee"/>
      <stop offset="1" stop-color="#818cf8"/>
    </linearGradient>
    <linearGradient id="accText" x1="0" y1="0" x2="1" y2="0">
      <stop offset="0" stop-color="#22d3ee"/>
      <stop offset="1" stop-color="#818cf8"/>
    </linearGradient>
  </defs>

  <!-- ===== INPUT: 3 chunks, light grey -> dark left to right ===== -->
  <rect x="30" y="52" width="60" height="60" rx="13" fill="#aab4c2"/>
  <polygon points="160,52 190,112 130,112" fill="#6b7482"/>
  <polygon points="260,52 290,82 260,112 230,82" fill="#1f2937"/>

  <!-- ===== PIPE OPERATOR with a chunk inside it (being transformed) ===== -->
  <path d="M315 30 L395 30 L455 82 L395 134 L315 134 Z"
        fill="none" stroke="url(#accA)" stroke-width="18" stroke-linejoin="round"/>
  <circle cx="362" cy="82" r="30" fill="url(#accA)"/>

  <!-- ===== OUTPUT: 3 chunks, near-black -> blue -> accent left to right ===== -->
  <rect x="490" y="52" width="60" height="60" rx="13" fill="#1f2937"/>
  <polygon points="620,52 650,112 590,112" fill="#2f6fd0"/>
  <polygon points="720,52 750,82 720,112 690,82" fill="url(#accA)"/>

  <!-- ===== WORDMARK ===== -->
  <text x="390" y="270" text-anchor="middle"
        font-family="'JetBrains Mono', monospace" font-weight="700" font-size="72"
        letter-spacing="-2" fill="#1f2937">ai-<tspan fill="url(#accText)">stream</tspan>-utils</text>
</svg>
