<svg width="780" height="304" viewBox="0 0 780 304" xmlns="http://www.w3.org/2000/svg">
  <defs>
    <linearGradient id="accA" x1="0" y1="0" x2="1" y2="1">
      <stop offset="0" stop-color="#22d3ee"/>
      <stop offset="1" stop-color="#818cf8"/>
    </linearGradient>
    <linearGradient id="accText" x1="0" y1="0" x2="1" y2="0">
      <stop offset="0" stop-color="#22d3ee"/>
      <stop offset="1" stop-color="#818cf8"/>
    </linearGradient>
    <radialGradient id="halo" cx="0.5" cy="0.5" r="0.5">
      <stop offset="0" stop-color="#22d3ee" stop-opacity="0.30"/>
      <stop offset="1" stop-color="#22d3ee" stop-opacity="0"/>
    </radialGradient>
  </defs>

  <!-- ===== INPUT: 3 chunks, grey -> white left to right ===== -->
  <rect x="30" y="52" width="60" height="60" rx="13" fill="#565e6b"/>
  <polygon points="160,52 190,112 130,112" fill="#8e97a4"/>
  <polygon points="260,52 290,82 260,112 230,82" fill="#e6eaf0"/>

  <!-- ===== PIPE OPERATOR with a chunk inside it (transform core, spotlit) ===== -->
  <circle cx="385" cy="82" r="68" fill="url(#halo)"/>
  <path d="M315 30 L395 30 L455 82 L395 134 L315 134 Z"
        fill="none" stroke="url(#accA)" stroke-width="18" stroke-linejoin="round"/>
  <circle cx="362" cy="82" r="30" fill="url(#accA)"/>

  <!-- ===== OUTPUT: 3 chunks, deep blue -> bright accent left to right ===== -->
  <rect x="490" y="52" width="60" height="60" rx="13" fill="#3b4d9e"/>
  <polygon points="620,52 650,112 590,112" fill="#4f86d6"/>
  <polygon points="720,52 750,82 720,112 690,82" fill="url(#accA)"/>

  <!-- ===== WORDMARK ===== -->
  <text x="390" y="270" text-anchor="middle"
        font-family="'JetBrains Mono', monospace" font-weight="700" font-size="72"
        letter-spacing="-2" fill="#e6eaf0">ai-<tspan fill="url(#accText)">stream</tspan>-utils</text>
</svg>
